<svg width="89" height="18" viewBox="0 0 89 18" fill="none" xmlns="http://www.w3.org/2000/svg">
<path d="M0.743342 2.31534V0.909091H10.5615V2.31534H6.44505V14H4.85982V2.31534H0.743342ZM12.6501 17.6818C12.3944 17.6818 12.1665 17.6605 11.9662 17.6179C11.7659 17.5795 11.6274 17.5412 11.5507 17.5028L11.9342 16.1733C12.3007 16.267 12.6246 16.3011 12.9058 16.2756C13.1871 16.25 13.4363 16.1243 13.6537 15.8984C13.8753 15.6768 14.0777 15.3168 14.2609 14.8182L14.5422 14.0511L10.9115 4.18182H12.5479L15.2581 12.0057H15.3604L18.0706 4.18182H19.7069L15.5393 15.4318C15.3518 15.9389 15.1196 16.3587 14.8426 16.6911C14.5656 17.0277 14.2439 17.277 13.8774 17.4389C13.5152 17.6009 13.1061 17.6818 12.6501 17.6818ZM21.6981 17.6818V4.18182H23.1555V5.74148H23.3344C23.4452 5.57102 23.5986 5.35369 23.7947 5.08949C23.9949 4.82102 24.2805 4.58239 24.6512 4.37358C25.0262 4.16051 25.5333 4.05398 26.1725 4.05398C26.9992 4.05398 27.7279 4.26065 28.3586 4.67401C28.9893 5.08736 29.4814 5.6733 29.8351 6.43182C30.1888 7.19034 30.3657 8.08523 30.3657 9.11648C30.3657 10.1562 30.1888 11.0575 29.8351 11.8203C29.4814 12.5788 28.9914 13.1669 28.365 13.5845C27.7385 13.9979 27.0162 14.2045 26.1981 14.2045C25.5674 14.2045 25.0624 14.1001 24.6832 13.8913C24.3039 13.6783 24.012 13.4375 23.8074 13.169C23.6029 12.8963 23.4452 12.6705 23.3344 12.4915H23.2066V17.6818H21.6981ZM23.181 9.09091C23.181 9.83239 23.2897 10.4865 23.507 11.0533C23.7243 11.6158 24.0418 12.0568 24.4594 12.3764C24.877 12.6918 25.3884 12.8494 25.9935 12.8494C26.6242 12.8494 27.1505 12.6832 27.5724 12.3509C27.9985 12.0142 28.3181 11.5625 28.5312 10.9957C28.7485 10.4247 28.8572 9.78977 28.8572 9.09091C28.8572 8.40057 28.7506 7.77841 28.5376 7.22443C28.3287 6.66619 28.0113 6.22514 27.5851 5.90128C27.1633 5.57315 26.6327 5.40909 25.9935 5.40909C25.3799 5.40909 24.8643 5.56463 24.4466 5.87571C24.029 6.18253 23.7137 6.61293 23.5006 7.1669C23.2876 7.71662 23.181 8.35795 23.181 9.09091ZM36.7833 14.2045C35.8373 14.2045 35.0212 13.9957 34.3351 13.5781C33.6533 13.1562 33.127 12.5682 32.7563 11.8139C32.3898 11.0554 32.2066 10.1733 32.2066 9.16761C32.2066 8.16193 32.3898 7.27557 32.7563 6.50852C33.127 5.73722 33.6427 5.13636 34.3032 4.70597C34.968 4.27131 35.7435 4.05398 36.6299 4.05398C37.1412 4.05398 37.6462 4.1392 38.1448 4.30966C38.6434 4.48011 39.0972 4.7571 39.5063 5.14062C39.9154 5.51989 40.2414 6.02273 40.4843 6.64915C40.7272 7.27557 40.8486 8.04687 40.8486 8.96307V9.60227H33.2805V8.2983H39.3145C39.3145 7.74432 39.2037 7.25 38.9822 6.81534C38.7648 6.38068 38.4537 6.03764 38.0489 5.78622C37.6483 5.5348 37.1753 5.40909 36.6299 5.40909C36.029 5.40909 35.5091 5.55824 35.0702 5.85653C34.6356 6.15057 34.301 6.53409 34.0667 7.0071C33.8323 7.48011 33.7151 7.98722 33.7151 8.52841V9.39773C33.7151 10.1392 33.843 10.7678 34.0986 11.2834C34.3586 11.7947 34.7187 12.1847 35.1789 12.4531C35.6391 12.7173 36.1739 12.8494 36.7833 12.8494C37.1796 12.8494 37.5376 12.794 37.8572 12.6832C38.181 12.5682 38.4601 12.3977 38.6945 12.1719C38.9289 11.9418 39.11 11.6562 39.2378 11.3153L40.6952 11.7244C40.5418 12.2188 40.284 12.6534 39.9218 13.0284C39.5596 13.3991 39.1121 13.6889 38.5795 13.8977C38.0468 14.1023 37.4481 14.2045 36.7833 14.2045ZM50.0979 6.38068L48.7428 6.7642C48.6576 6.53835 48.5319 6.31889 48.3657 6.10582C48.2037 5.88849 47.9822 5.70952 47.7009 5.56889C47.4197 5.42827 47.0596 5.35795 46.6207 5.35795C46.0198 5.35795 45.5191 5.49645 45.1185 5.77344C44.7222 6.04616 44.5241 6.39347 44.5241 6.81534C44.5241 7.19034 44.6604 7.48651 44.9332 7.70384C45.2059 7.92116 45.632 8.10227 46.2116 8.24716L47.6689 8.60511C48.5468 8.81818 49.2009 9.14418 49.6313 9.5831C50.0617 10.0178 50.2769 10.5781 50.2769 11.2642C50.2769 11.8267 50.115 12.3295 49.7911 12.7727C49.4715 13.2159 49.0241 13.5653 48.4488 13.821C47.8735 14.0767 47.2045 14.2045 46.4417 14.2045C45.4403 14.2045 44.6114 13.9872 43.9552 13.5526C43.2989 13.1179 42.8834 12.483 42.7087 11.6477L44.1405 11.2898C44.2769 11.8182 44.5347 12.2145 44.914 12.4787C45.2975 12.7429 45.7982 12.875 46.4161 12.875C47.1192 12.875 47.6775 12.7259 48.0908 12.4276C48.5084 12.125 48.7172 11.7628 48.7172 11.3409C48.7172 11 48.5979 10.7145 48.3593 10.4844C48.1206 10.25 47.7542 10.0753 47.2599 9.96023L45.6235 9.5767C44.7243 9.36364 44.0638 9.03338 43.642 8.58594C43.2243 8.13423 43.0155 7.5696 43.0155 6.89205C43.0155 6.33807 43.1711 5.84801 43.4822 5.42188C43.7975 4.99574 44.2258 4.66122 44.767 4.41832C45.3124 4.17543 45.9303 4.05398 46.6207 4.05398C47.5922 4.05398 48.355 4.26705 48.909 4.69318C49.4672 5.11932 49.8635 5.68182 50.0979 6.38068ZM56.5363 14.2045C55.6159 14.2045 54.8232 13.9872 54.1585 13.5526C53.4937 13.1179 52.9823 12.5192 52.6244 11.7564C52.2664 10.9936 52.0874 10.1222 52.0874 9.14205C52.0874 8.14489 52.2707 7.26491 52.6372 6.50213C53.0079 5.73509 53.5235 5.13636 54.184 4.70597C54.8488 4.27131 55.6244 4.05398 56.5107 4.05398C57.2011 4.05398 57.8232 4.18182 58.3772 4.4375C58.9312 4.69318 59.385 5.05114 59.7387 5.51136C60.0924 5.97159 60.3119 6.50852 60.3971 7.12216H58.8886C58.7735 6.67472 58.5178 6.27841 58.1215 5.93324C57.7295 5.58381 57.2011 5.40909 56.5363 5.40909C55.9482 5.40909 55.4326 5.5625 54.9894 5.86932C54.5505 6.17187 54.2075 6.60014 53.9603 7.15412C53.7174 7.70383 53.596 8.34943 53.596 9.09091C53.596 9.84943 53.7153 10.5099 53.9539 11.0724C54.1968 11.6349 54.5377 12.0717 54.9767 12.3828C55.4198 12.6939 55.9397 12.8494 56.5363 12.8494C56.9284 12.8494 57.2842 12.7812 57.6038 12.6449C57.9234 12.5085 58.194 12.3125 58.4156 12.0568C58.6372 11.8011 58.7948 11.4943 58.8886 11.1364H60.3971C60.3119 11.7159 60.1009 12.2379 59.7643 12.7024C59.4319 13.1626 58.9909 13.5291 58.4411 13.8018C57.8957 14.0703 57.2607 14.2045 56.5363 14.2045ZM62.6024 14V4.18182H64.0597V5.66477H64.162C64.341 5.17898 64.6649 4.7848 65.1336 4.48224C65.6024 4.17969 66.1308 4.02841 66.7188 4.02841C66.8296 4.02841 66.9681 4.03054 67.1343 4.0348C67.3005 4.03906 67.4262 4.04545 67.5115 4.05398V5.58807C67.4603 5.57528 67.3431 5.55611 67.1599 5.53054C66.9809 5.50071 66.7913 5.4858 66.591 5.4858C66.1137 5.4858 65.6876 5.58594 65.3126 5.78622C64.9419 5.98224 64.6478 6.25497 64.4305 6.6044C64.2174 6.94957 64.1109 7.34375 64.1109 7.78693V14H62.6024ZM69.2996 14V4.18182H70.8082V14H69.2996ZM70.0667 2.54545C69.7726 2.54545 69.5191 2.44531 69.306 2.24503C69.0972 2.04474 68.9928 1.80398 68.9928 1.52273C68.9928 1.24148 69.0972 1.00071 69.306 0.800426C69.5191 0.600142 69.7726 0.5 70.0667 0.5C70.3607 0.5 70.6121 0.600142 70.8209 0.800426C71.034 1.00071 71.1405 1.24148 71.1405 1.52273C71.1405 1.80398 71.034 2.04474 70.8209 2.24503C70.6121 2.44531 70.3607 2.54545 70.0667 2.54545ZM73.5711 17.6818V4.18182H75.0285V5.74148H75.2075C75.3183 5.57102 75.4717 5.35369 75.6677 5.08949C75.868 4.82102 76.1535 4.58239 76.5242 4.37358C76.8992 4.16051 77.4063 4.05398 78.0455 4.05398C78.8722 4.05398 79.6009 4.26065 80.2316 4.67401C80.8623 5.08736 81.3545 5.6733 81.7082 6.43182C82.0619 7.19034 82.2387 8.08523 82.2387 9.11648C82.2387 10.1562 82.0619 11.0575 81.7082 11.8203C81.3545 12.5788 80.8644 13.1669 80.238 13.5845C79.6116 13.9979 78.8893 14.2045 78.0711 14.2045C77.4404 14.2045 76.9355 14.1001 76.5562 13.8913C76.1769 13.6783 75.885 13.4375 75.6805 13.169C75.4759 12.8963 75.3183 12.6705 75.2075 12.4915H75.0796V17.6818H73.5711ZM75.0541 9.09091C75.0541 9.83239 75.1627 10.4865 75.3801 11.0533C75.5974 11.6158 75.9149 12.0568 76.3325 12.3764C76.7501 12.6918 77.2615 12.8494 77.8666 12.8494C78.4972 12.8494 79.0235 12.6832 79.4454 12.3509C79.8715 12.0142 80.1911 11.5625 80.4042 10.9957C80.6215 10.4247 80.7302 9.78977 80.7302 9.09091C80.7302 8.40057 80.6237 7.77841 80.4106 7.22443C80.2018 6.66619 79.8843 6.22514 79.4582 5.90128C79.0363 5.57315 78.5058 5.40909 77.8666 5.40909C77.2529 5.40909 76.7373 5.56463 76.3197 5.87571C75.9021 6.18253 75.5867 6.61293 75.3737 7.1669C75.1606 7.71662 75.0541 8.35795 75.0541 9.09091ZM88.8097 4.18182V5.46023H83.7217V4.18182H88.8097ZM85.2046 1.82955H86.7132V11.1875C86.7132 11.6136 86.7749 11.9332 86.8985 12.1463C87.0264 12.3551 87.1883 12.4957 87.3843 12.5682C87.5846 12.6364 87.7955 12.6705 88.0171 12.6705C88.1833 12.6705 88.3197 12.6619 88.4262 12.6449C88.5328 12.6236 88.618 12.6065 88.6819 12.5938L88.9887 13.9489C88.8865 13.9872 88.7437 14.0256 88.5605 14.0639C88.3772 14.1065 88.145 14.1278 87.8637 14.1278C87.4376 14.1278 87.02 14.0362 86.6109 13.853C86.2061 13.6697 85.8694 13.3906 85.6009 13.0156C85.3367 12.6406 85.2046 12.1676 85.2046 11.5966V1.82955Z" fill="#D1D5DB"/>
</svg>
